<svg xmlns="http://www.w3.org/2000/svg" xmlns:xlink="http://www.w3.org/1999/xlink" width="115" height="65.001" viewBox="0 0 115 65.001">
  <defs>
    <clipPath id="clip-path">
      <rect id="Rectangle_57591" data-name="Rectangle 57591" width="115" height="65" fill="none"/>
    </clipPath>
  </defs>
  <g id="Vector_Smart_Object" data-name="Vector Smart Object" transform="translate(0 0)">
    <path id="Path_88108" data-name="Path 88108" d="M0,0V65H39.24V56.686H35.793v4.875H3.446V3.439H35.793V19.31H39.24V0Z" fill="#d9a417"/>
    <path id="Path_88109" data-name="Path 88109" d="M87.491,44.948h.047l2.023-5.1h2.466l-3.414,7.542v4.165H86.353V47.251l-3.368-7.4h2.482Z" fill="#fefefe"/>
    <g id="Group_143909" data-name="Group 143909">
      <g id="Group_143908" data-name="Group 143908" clip-path="url(#clip-path)">
        <path id="Path_88110" data-name="Path 88110" d="M77.373,45.105h1.233a1.427,1.427,0,0,0,1.107-.442,1.862,1.862,0,0,0,.38-1.246,2.031,2.031,0,0,0-.38-1.293,1.283,1.283,0,0,0-1.091-.489H77.373Zm0,1.767v4.686H75.1V39.868h3.525a3.943,3.943,0,0,1,2.751.915,3.243,3.243,0,0,1,1,2.525,2.785,2.785,0,0,1-1.644,2.635,2.26,2.26,0,0,1,1.329,1.01,3.59,3.59,0,0,1,.395,1.783v.836a6.108,6.108,0,0,0,.111,1.041,1.392,1.392,0,0,0,.411.789v.158H80.614a1.293,1.293,0,0,1-.364-.836,9.663,9.663,0,0,1-.079-1.168v-.8a2.23,2.23,0,0,0-.364-1.388,1.243,1.243,0,0,0-1.059-.489Z" fill="#fefefe"/>
        <path id="Path_88111" data-name="Path 88111" d="M71.254,44.064a3.006,3.006,0,0,0-.521-1.925,1.805,1.805,0,0,0-1.5-.663,1.766,1.766,0,0,0-1.486.647,3.192,3.192,0,0,0-.506,1.941v3.282a3.179,3.179,0,0,0,.506,1.956,2.049,2.049,0,0,0,2.988,0,3.075,3.075,0,0,0,.521-1.956Zm2.261,3.282a4.363,4.363,0,0,1-1.17,3.234,4.766,4.766,0,0,1-6.213,0,4.355,4.355,0,0,1-1.154-3.234V44.08a4.364,4.364,0,0,1,1.154-3.218,4.19,4.19,0,0,1,3.1-1.168,4.251,4.251,0,0,1,3.114,1.168,4.373,4.373,0,0,1,1.17,3.218Z" fill="#fefefe"/>
        <path id="Path_88112" data-name="Path 88112" d="M64.314,41.635H61.547v9.924H59.27V41.635H56.583V39.852h7.731Z" fill="#fefefe"/>
        <path id="Path_88113" data-name="Path 88113" d="M41.911,47.251H43.9l-.98-3.723h-.047Zm2.466,1.783h-2.94l-.664,2.524H38.4l3.336-11.706h2.356l3.32,11.706H45.042Z" fill="#fefefe"/>
        <path id="Path_88114" data-name="Path 88114" d="M37.627,46.667H33.912v4.891H31.635V39.852h6.7v1.783H33.912V44.9h3.715Z" fill="#fefefe"/>
        <path id="Path_88115" data-name="Path 88115" d="M114.289,30.954H110.7v3.408H115v1.767h-6.577V24.422h6.561v1.783H110.7v2.982h3.589Z" fill="#fefefe"/>
        <path id="Path_88116" data-name="Path 88116" d="M106.795,34.582a4.079,4.079,0,0,1-1.439,1.2,5.077,5.077,0,0,1-2.45.521,4.226,4.226,0,0,1-3.051-1.12,4.142,4.142,0,0,1-1.138-3.123V28.492a4.19,4.19,0,0,1,1.107-3.123,4,4,0,0,1,2.957-1.12,4.125,4.125,0,0,1,2.893.9,3.247,3.247,0,0,1,.933,2.587l-.016.047h-2.134a1.891,1.891,0,0,0-.4-1.341,1.917,1.917,0,0,0-2.593.205,2.909,2.909,0,0,0-.49,1.83v3.582a2.936,2.936,0,0,0,.506,1.861,1.714,1.714,0,0,0,1.423.6,2.681,2.681,0,0,0,1.044-.158,1.211,1.211,0,0,0,.569-.41V31.585h-1.786V30.023h4.063Z" fill="#fefefe"/>
        <path id="Path_88117" data-name="Path 88117" d="M91.76,26.2v8.157H93.1a1.651,1.651,0,0,0,1.423-.868,4.163,4.163,0,0,0,.538-2.24V29.3a4.07,4.07,0,0,0-.538-2.225A1.62,1.62,0,0,0,93.1,26.2ZM89.5,36.129V24.422h3.6a3.832,3.832,0,0,1,3.036,1.372,5.113,5.113,0,0,1,1.2,3.518v1.941a5.046,5.046,0,0,1-1.2,3.5A3.832,3.832,0,0,1,93.1,36.129Z" fill="#fefefe"/>
        <path id="Path_88118" data-name="Path 88118" d="M87.349,30.954H83.76v3.408h4.285v1.767H81.483V24.422h6.546v1.783H83.76v2.982h3.589Z" fill="#fefefe"/>
        <path id="Path_88119" data-name="Path 88119" d="M75.744,34.362h4.379v1.767h-6.64V24.422h2.261Z" fill="#fefefe"/>
        <path id="Path_88120" data-name="Path 88120" d="M57.01,28.619a3.038,3.038,0,0,0-.521-1.925,1.819,1.819,0,0,0-1.5-.647,1.766,1.766,0,0,0-1.486.647,3.11,3.11,0,0,0-.506,1.925v3.3a3.212,3.212,0,0,0,.506,1.956,1.8,1.8,0,0,0,1.5.647,1.839,1.839,0,0,0,1.5-.647,3.212,3.212,0,0,0,.506-1.956Zm2.261,3.3a4.286,4.286,0,0,1-1.17,3.219,4.7,4.7,0,0,1-6.2,0,4.349,4.349,0,0,1-1.17-3.219V28.65a4.472,4.472,0,0,1,1.154-3.234,4.718,4.718,0,0,1,6.213,0,4.413,4.413,0,0,1,1.17,3.234Z" fill="#fefefe"/>
        <path id="Path_88121" data-name="Path 88121" d="M49.152,36.129H46.876L43.161,28.65l-.047.016v7.462H40.837V24.422h2.277L46.828,31.9l.047-.016V22.071h2.277Z" fill="#fefefe"/>
        <path id="Path_88122" data-name="Path 88122" d="M34.528,31.206h-.617v4.922H31.636V24.422h2.276v4.8h.459l2.5-4.8h2.814L36.3,29.77l3.636,6.358H37.027Z" fill="#fefefe"/>
        <path id="Path_88123" data-name="Path 88123" d="M12.126,24.328,23.809,22.7V47.014h4.474v4.544H12.142V47.014h4.49V28.855H12.126Z" fill="#fefefe" fill-rule="evenodd"/>
        <path id="Path_88124" data-name="Path 88124" d="M20.158,10.349a4.859,4.859,0,1,1-4.885,4.859,4.867,4.867,0,0,1,4.885-4.859" fill="#fefefe" fill-rule="evenodd"/>
        <path id="Path_88125" data-name="Path 88125" d="M89.483,57.7h.4l.98,2.193.948-2.193h.4l-1.707,3.882h-.38l.538-1.247Zm-.205-1.089v.347a1,1,0,0,0-.332-.079.34.34,0,0,0-.19.047.118.118,0,0,0-.079.095,1.191,1.191,0,0,0-.016.3V57.7h.585v.316h-.6v2.525h-.364V58.011H87.9V57.7h.379v-.441a1.041,1.041,0,0,1,.064-.442.4.4,0,0,1,.19-.205.623.623,0,0,1,.316-.078,1.539,1.539,0,0,1,.427.078M86.985,57.7h.364v2.84h-.364Zm.19-1.167a.276.276,0,0,1,.205.095.253.253,0,0,1,.095.2.309.309,0,0,1-.095.221.332.332,0,0,1-.205.079.343.343,0,0,1-.221-.079.312.312,0,0,1-.095-.221.255.255,0,0,1,.095-.2.286.286,0,0,1,.221-.095m-1.265.078h.364v3.928H85.91Zm-2.134,1.373a1.039,1.039,0,0,0-.79.331,1.1,1.1,0,0,0-.332.82,1.183,1.183,0,0,0,.142.584,1.026,1.026,0,0,0,.411.41,1.127,1.127,0,0,0,.585.158,1.175,1.175,0,0,0,.553-.158.973.973,0,0,0,.411-.426,1.227,1.227,0,0,0,.158-.568,1.291,1.291,0,0,0-.158-.584,1.069,1.069,0,0,0-.98-.568M82.321,57.7h.364v.521a1.44,1.44,0,0,1,.49-.442,1.382,1.382,0,0,1,.632-.142,1.421,1.421,0,0,1,1.044.426,1.478,1.478,0,0,1,.427,1.057,1.45,1.45,0,0,1-.427,1.057,1.438,1.438,0,0,1-1.66.3,1.429,1.429,0,0,1-.506-.426v1.531h-.364Zm-5.044,0h.364v.489a1.341,1.341,0,0,1,.4-.395,1.087,1.087,0,0,1,.585-.158.882.882,0,0,1,.4.079,1.008,1.008,0,0,1,.3.2,1.306,1.306,0,0,1,.205.395,1.192,1.192,0,0,1,.458-.5.979.979,0,0,1,.585-.174.923.923,0,0,1,.522.142.778.778,0,0,1,.332.41,2.18,2.18,0,0,1,.11.8v1.546h-.364V58.989a2.539,2.539,0,0,0-.063-.631.558.558,0,0,0-.237-.268.572.572,0,0,0-.38-.11.748.748,0,0,0-.474.158.915.915,0,0,0-.332.41,2.881,2.881,0,0,0-.095.883v1.1h-.364V59.084a2.858,2.858,0,0,0-.064-.694.633.633,0,0,0-.237-.3.571.571,0,0,0-.379-.11.815.815,0,0,0-.475.158.829.829,0,0,0-.316.41,2.047,2.047,0,0,0-.11.789v1.2h-.364Zm-1.692.284a1.172,1.172,0,0,0-.569.142c-1.217.71-.759,2.477.459,1.956a1.1,1.1,0,0,0,.632-1.089c.016-.331,0-.71,0-1.01Zm.869-.347v2.9h-.364V60a1.338,1.338,0,0,1-1.107.537c-.917-.047-1.439-1.5-.475-2.477a1.422,1.422,0,0,1,1.044-.426h.9Z" fill="#fefefe"/>
        <rect id="Rectangle_57589" data-name="Rectangle 57589" width="0.364" height="4.97" transform="translate(71.665 56.607)" fill="#fefefe"/>
        <path id="Path_88126" data-name="Path 88126" d="M69.294,58.831a1.316,1.316,0,0,0-.221-.473,1.128,1.128,0,0,0-.364-.284,1.286,1.286,0,0,0-.49-.095,1.048,1.048,0,0,0-.712.268,1.21,1.21,0,0,0-.332.583Zm0,.773.3.158a1.365,1.365,0,0,1-.348.473,1.318,1.318,0,0,1-.442.284,1.588,1.588,0,0,1-.569.095,1.4,1.4,0,0,1-1.091-.458,1.556,1.556,0,0,1-.379-1.025,1.483,1.483,0,0,1,.332-.962,1.318,1.318,0,0,1,1.123-.537,1.376,1.376,0,0,1,1.154.537,1.543,1.543,0,0,1,.316.978H67.128a1.311,1.311,0,0,0,.316.82,1.038,1.038,0,0,0,.759.316,1.343,1.343,0,0,0,.427-.079,1.063,1.063,0,0,0,.347-.2,1.779,1.779,0,0,0,.316-.395M65.136,57.7h.38v.41a1.549,1.549,0,0,1,.347-.363.719.719,0,0,1,.4-.11.66.66,0,0,1,.316.095l-.19.3a.477.477,0,0,0-.19-.047.473.473,0,0,0-.347.158.975.975,0,0,0-.269.458,5.674,5.674,0,0,0-.063.978v.962h-.38Zm-3.62.6-.284.173a1.239,1.239,0,0,0-1.028-.5,1.146,1.146,0,0,0-.87.347,1.052,1.052,0,0,0-.348.8,1.081,1.081,0,0,0,.158.583,1.04,1.04,0,0,0,.443.426,1.122,1.122,0,0,0,.616.158,1.282,1.282,0,0,0,1.028-.5l.284.189a1.349,1.349,0,0,1-.553.474,1.752,1.752,0,0,1-.775.173,1.555,1.555,0,0,1-1.123-.426,1.372,1.372,0,0,1-.443-1.041,1.454,1.454,0,0,1,.206-.773,1.471,1.471,0,0,1,.569-.552,1.754,1.754,0,0,1,.822-.189,1.58,1.58,0,0,1,.538.079,1.43,1.43,0,0,1,.443.221,1.162,1.162,0,0,1,.316.363m2.055-.316a1.172,1.172,0,0,0-.569.142c-1.217.71-.759,2.477.459,1.956a1.106,1.106,0,0,0,.648-1.089v-1.01Zm.87-.347v2.9h-.364V60a1.32,1.32,0,0,1-1.107.537c-.917-.047-1.423-1.5-.475-2.477a1.475,1.475,0,0,1,1.044-.426h.9Z" fill="#fefefe"/>
        <rect id="Rectangle_57590" data-name="Rectangle 57590" width="0.379" height="4.97" transform="translate(56.282 56.607)" fill="#fefefe"/>
        <path id="Path_88127" data-name="Path 88127" d="M53.358,56.638h.379V57.7h.585v.316h-.585v2.525h-.379V58.011h-.49V57.7h.49Zm-.822-.032v.347a1.085,1.085,0,0,0-.348-.079.323.323,0,0,0-.174.047.143.143,0,0,0-.095.095,1.232,1.232,0,0,0-.016.3V57.7h.6v.316h-.6v2.525H51.54V58.011h-.38V57.7h.38v-.441a1.476,1.476,0,0,1,.047-.442.594.594,0,0,1,.19-.205.737.737,0,0,1,.332-.078,1.542,1.542,0,0,1,.427.078M46.4,57.7h.364v.41a1.328,1.328,0,0,1,.364-.363.668.668,0,0,1,.379-.11.715.715,0,0,1,.332.095l-.19.3a.546.546,0,0,0-.206-.047.5.5,0,0,0-.348.158.853.853,0,0,0-.253.458,4.088,4.088,0,0,0-.079.978v.962H46.4Zm-.569.6-.3.173a1.2,1.2,0,0,0-1.027-.5,1.111,1.111,0,0,0-.854.347,1.052,1.052,0,0,0-.348.8,1.077,1.077,0,0,0,.158.583,1.1,1.1,0,0,0,.427.426,1.294,1.294,0,0,0,1.644-.347l.3.189a1.349,1.349,0,0,1-.553.474,1.752,1.752,0,0,1-.775.173,1.529,1.529,0,0,1-1.123-.426,1.37,1.37,0,0,1-.443-1.041,1.454,1.454,0,0,1,.206-.773,1.474,1.474,0,0,1,.569-.552,1.689,1.689,0,0,1,.806-.189,1.613,1.613,0,0,1,.553.079,1.638,1.638,0,0,1,.443.221,1.4,1.4,0,0,1,.316.363m3.826-.316a1.157,1.157,0,0,0-.554.142c-1.233.71-.775,2.477.459,1.956a1.1,1.1,0,0,0,.632-1.089v-1.01Zm.885-.347v2.9H50.18V60a1.338,1.338,0,0,1-1.107.537c-.933-.047-1.439-1.5-.475-2.477a1.422,1.422,0,0,1,1.044-.426h.9Z" fill="#fefefe"/>
        <path id="Path_88128" data-name="Path 88128" d="M66.259,28.871h.016l1.708,7.257h2.1l2.324-11.706H70.085l-1.17,7.226c-.047.253-.079.237-.127.016l-1.644-7.242h-1.77l-1.644,7.242c-.047.221-.079.237-.127-.016l-1.17-7.226H60.109l2.308,11.706h2.118l1.708-7.257Z" fill="#fefefe"/>
        <path id="Path_88129" data-name="Path 88129" d="M50.908,42.234c.822-.978,3.431-.741,4.474-.189V40.183c-1.976-.631-5.012-.458-6.087.82a4.224,4.224,0,0,0-1.155,3.124V47.3a3.953,3.953,0,0,0,4.253,4.26,13.686,13.686,0,0,0,2.988-.316v-2.02c-.917.647-3.684.947-4.474-.031-.838-1.057-.854-5.932,0-6.958" fill="#fefefe"/>
      </g>
    </g>
  </g>
</svg>
